<svg xmlns="http://www.w3.org/2000/svg" width="486" height="484" viewBox="0 0 486 484"><defs><marker id="ah" markerWidth="9" markerHeight="9" refX="7" refY="4.5" orient="auto"><path d="M0,0 L9,4.5 L0,9 z" fill="#1f1f1f"/></marker></defs><rect width="486" height="484" fill="#ffffff"/><rect x="30" y="8" width="56" height="56" fill="#F0D9B5"/><rect x="86" y="8" width="56" height="56" fill="#B58863"/><rect x="142" y="8" width="56" height="56" fill="#F0D9B5"/><rect x="198" y="8" width="56" height="56" fill="#B58863"/><rect x="254" y="8" width="56" height="56" fill="#F0D9B5"/><rect x="310" y="8" width="56" height="56" fill="#B58863"/><rect x="366" y="8" width="56" height="56" fill="#F0D9B5"/><rect x="422" y="8" width="56" height="56" fill="#B58863"/><rect x="30" y="64" width="56" height="56" fill="#B58863"/><rect x="86" y="64" width="56" height="56" fill="#F0D9B5"/><rect x="142" y="64" width="56" height="56" fill="#B58863"/><rect x="198" y="64" width="56" height="56" fill="#F0D9B5"/><rect x="254" y="64" width="56" height="56" fill="#B58863"/><rect x="310" y="64" width="56" height="56" fill="#F0D9B5"/><rect x="366" y="64" width="56" height="56" fill="#B58863"/><rect x="422" y="64" width="56" height="56" fill="#F0D9B5"/><rect x="30" y="120" width="56" height="56" fill="#F0D9B5"/><rect x="86" y="120" width="56" height="56" fill="#B58863"/><rect x="142" y="120" width="56" height="56" fill="#F0D9B5"/><rect x="198" y="120" width="56" height="56" fill="#B58863"/><rect x="254" y="120" width="56" height="56" fill="#F0D9B5"/><rect x="310" y="120" width="56" height="56" fill="#B58863"/><rect x="366" y="120" width="56" height="56" fill="#F0D9B5"/><rect x="422" y="120" width="56" height="56" fill="#B58863"/><rect x="30" y="176" width="56" height="56" fill="#B58863"/><rect x="86" y="176" width="56" height="56" fill="#F0D9B5"/><rect x="142" y="176" width="56" height="56" fill="#B58863"/><rect x="198" y="176" width="56" height="56" fill="#F0D9B5"/><rect x="254" y="176" width="56" height="56" fill="#B58863"/><rect x="310" y="176" width="56" height="56" fill="#F0D9B5"/><rect x="366" y="176" width="56" height="56" fill="#B58863"/><rect x="422" y="176" width="56" height="56" fill="#F0D9B5"/><rect x="30" y="232" width="56" height="56" fill="#F0D9B5"/><rect x="86" y="232" width="56" height="56" fill="#B58863"/><rect x="142" y="232" width="56" height="56" fill="#F0D9B5"/><rect x="198" y="232" width="56" height="56" fill="#B58863"/><rect x="254" y="232" width="56" height="56" fill="#F0D9B5"/><rect x="310" y="232" width="56" height="56" fill="#B58863"/><rect x="366" y="232" width="56" height="56" fill="#F0D9B5"/><rect x="422" y="232" width="56" height="56" fill="#B58863"/><rect x="30" y="288" width="56" height="56" fill="#B58863"/><rect x="86" y="288" width="56" height="56" fill="#F0D9B5"/><rect x="142" y="288" width="56" height="56" fill="#B58863"/><rect x="198" y="288" width="56" height="56" fill="#F0D9B5"/><rect x="254" y="288" width="56" height="56" fill="#B58863"/><rect x="310" y="288" width="56" height="56" fill="#F0D9B5"/><rect x="366" y="288" width="56" height="56" fill="#B58863"/><rect x="422" y="288" width="56" height="56" fill="#F0D9B5"/><rect x="30" y="344" width="56" height="56" fill="#F0D9B5"/><rect x="86" y="344" width="56" height="56" fill="#B58863"/><rect x="142" y="344" width="56" height="56" fill="#F0D9B5"/><rect x="198" y="344" width="56" height="56" fill="#B58863"/><rect x="254" y="344" width="56" height="56" fill="#F0D9B5"/><rect x="310" y="344" width="56" height="56" fill="#B58863"/><rect x="366" y="344" width="56" height="56" fill="#F0D9B5"/><rect x="422" y="344" width="56" height="56" fill="#B58863"/><rect x="30" y="400" width="56" height="56" fill="#B58863"/><rect x="86" y="400" width="56" height="56" fill="#F0D9B5"/><rect x="142" y="400" width="56" height="56" fill="#B58863"/><rect x="198" y="400" width="56" height="56" fill="#F0D9B5"/><rect x="254" y="400" width="56" height="56" fill="#B58863"/><rect x="310" y="400" width="56" height="56" fill="#F0D9B5"/><rect x="366" y="400" width="56" height="56" fill="#B58863"/><rect x="422" y="400" width="56" height="56" fill="#F0D9B5"/><rect x="30" y="8" width="448" height="448" fill="none" stroke="#5b4326" stroke-width="2"/><g font-family="Verdana,Arial,sans-serif" font-size="14" fill="#444"><text x="14" y="41" text-anchor="middle">1</text><text x="14" y="97" text-anchor="middle">2</text><text x="14" y="153" text-anchor="middle">3</text><text x="14" y="209" text-anchor="middle">4</text><text x="14" y="265" text-anchor="middle">5</text><text x="14" y="321" text-anchor="middle">6</text><text x="14" y="377" text-anchor="middle">7</text><text x="14" y="433" text-anchor="middle">8</text><text x="58" y="475" text-anchor="middle">A</text><text x="114" y="475" text-anchor="middle">B</text><text x="170" y="475" text-anchor="middle">C</text><text x="226" y="475" text-anchor="middle">D</text><text x="282" y="475" text-anchor="middle">E</text><text x="338" y="475" text-anchor="middle">F</text><text x="394" y="475" text-anchor="middle">G</text><text x="450" y="475" text-anchor="middle">H</text></g><line x1="58" y1="428" x2="282" y2="204" stroke="#1f1f1f" stroke-width="3" marker-end="url(#ah)" opacity="0.85"/><line x1="282" y1="204" x2="114" y2="36" stroke="#1f1f1f" stroke-width="3" marker-end="url(#ah)" opacity="0.85"/><circle cx="114" cy="372" r="12.32" fill="none" stroke="#3a6ea5" stroke-width="2.5" stroke-dasharray="4 4" opacity="0.8"/><circle cx="170" cy="316" r="12.32" fill="none" stroke="#3a6ea5" stroke-width="2.5" stroke-dasharray="4 4" opacity="0.8"/><circle cx="226" cy="148" r="12.32" fill="none" stroke="#3a6ea5" stroke-width="2.5" stroke-dasharray="4 4" opacity="0.8"/><rect x="257" y="179" width="50" height="50" fill="#2E8B57" opacity="0.18"/><rect x="257" y="179" width="50" height="50" fill="none" stroke="#2E8B57" stroke-width="3"/><text x="302" y="192" text-anchor="end" font-family="Verdana" font-size="13" font-weight="bold" fill="#2E8B57">1</text><rect x="89" y="11" width="50" height="50" fill="#2E8B57" opacity="0.18"/><rect x="89" y="11" width="50" height="50" fill="none" stroke="#2E8B57" stroke-width="3"/><text x="134" y="24" text-anchor="end" font-family="Verdana" font-size="13" font-weight="bold" fill="#2E8B57">2</text><circle cx="226" cy="260" r="19.040000000000003" fill="#333333" stroke="#EADFA0" stroke-width="2.5"/><g stroke="#D4202A" stroke-width="5" stroke-linecap="round"><line x1="211.44" y1="245.44" x2="240.56" y2="274.56"/><line x1="211.44" y1="274.56" x2="240.56" y2="245.44"/></g><circle cx="170" cy="92" r="19.040000000000003" fill="#333333" stroke="#EADFA0" stroke-width="2.5"/><g stroke="#D4202A" stroke-width="5" stroke-linecap="round"><line x1="155.44" y1="77.44" x2="184.56" y2="106.56"/><line x1="155.44" y1="106.56" x2="184.56" y2="77.44"/></g><circle cx="58" cy="428" r="19.040000000000003" fill="#FAFAFA" stroke="#333333" stroke-width="2.5"/><polygon points="47.9,433.2 47.9,424.8 53.6,429.6 58.0,421.1 62.4,429.6 68.1,424.8 68.1,433.2" fill="#E6B800" stroke="#7A5C00" stroke-width="1.2"/></svg>
